<svg width="370" height="13" viewBox="0 0 370 13" fill="none" xmlns="http://www.w3.org/2000/svg">
<path d="M368.69 6.40936C364.37 13.602 357.37 13.602 353.05 6.40936C348.73 -0.783299 341.72 -0.783299 337.4 6.40936C333.09 13.602 326.08 13.602 321.76 6.40936C317.44 -0.783299 310.44 -0.783299 306.12 6.40936C301.8 13.602 294.79 13.602 290.47 6.40936C286.15 -0.783299 279.148 -0.783299 274.828 6.40936C270.508 13.602 263.503 13.602 259.183 6.40936C254.863 -0.783299 247.859 -0.783299 243.539 6.40936C239.219 13.602 232.214 13.602 227.895 6.40936C223.575 -0.783299 216.57 -0.783299 212.25 6.40936C207.93 13.602 200.926 13.602 196.606 6.40936C192.286 -0.783299 185.282 -0.783299 180.961 6.40936C176.641 13.602 169.637 13.602 165.317 6.40936C160.997 -0.783299 153.993 -0.783299 149.673 6.40936C145.352 13.602 138.348 13.602 134.028 6.40936C129.708 -0.783299 122.704 -0.783299 118.383 6.40936C114.063 13.602 107.059 13.602 102.739 6.40936C98.419 -0.783299 91.415 -0.783299 87.095 6.40936C82.775 13.602 75.77 13.602 71.45 6.40936C67.13 -0.783299 60.126 -0.783299 55.806 6.40936C51.486 13.602 44.482 13.602 40.162 6.40936C35.844 -0.783299 28.837 -0.783299 24.517 6.40936C20.199 13.602 13.193 13.602 8.87299 6.40936C6.69999 2.7905 3.848 0.99088 1 1.01534V1.00047C3.848 0.97841 6.69999 2.77467 8.87299 6.3945C13.191 13.5872 20.197 13.5872 24.517 6.3945C28.835 -0.798166 35.842 -0.798166 40.162 6.3945C44.48 13.5872 51.486 13.5872 55.806 6.3945C60.126 -0.798166 67.131 -0.798166 71.45 6.3945C75.77 13.5872 82.775 13.5872 87.095 6.3945C91.415 -0.798166 98.419 -0.798166 102.739 6.3945C107.059 13.5872 114.064 13.5872 118.383 6.3945C122.703 -0.798166 129.708 -0.798166 134.028 6.3945C138.348 13.5872 145.352 13.5872 149.673 6.3945C153.993 -0.798166 160.997 -0.798166 165.317 6.3945C169.637 13.5872 176.642 13.5872 180.961 6.3945C185.281 -0.798166 192.286 -0.798166 196.606 6.3945C200.926 13.5872 207.93 13.5872 212.25 6.3945C216.57 -0.798166 223.574 -0.798166 227.895 6.3945C232.215 13.5872 239.219 13.5872 243.539 6.3945C247.858 -0.798166 254.863 -0.798166 259.183 6.3945C263.503 13.5872 270.508 13.5872 274.828 6.3945C279.148 -0.798166 286.15 -0.798166 290.47 6.3945C294.79 13.5872 301.8 13.5872 306.12 6.3945C310.44 -0.798166 317.44 -0.798166 321.76 6.3945C326.08 13.5872 333.08 13.5872 337.4 6.3945C341.72 -0.798166 348.73 -0.798166 353.05 6.3945C357.37 13.5872 364.37 13.5872 368.69 6.3945" stroke="white" stroke-width="2" stroke-miterlimit="10"/>
</svg>
