<svg width="722" height="13" viewBox="0 0 722 13" fill="none" xmlns="http://www.w3.org/2000/svg">
<path d="M712.869 6.40936C708.551 13.602 701.545 13.602 697.225 6.40936C692.905 -0.783299 685.9 -0.783299 681.58 6.40936C677.26 13.602 670.256 13.602 665.936 6.40936C661.616 -0.783299 654.612 -0.783299 650.292 6.40936C645.974 13.602 638.967 13.602 634.647 6.40936C630.329 -0.783299 623.323 -0.783299 619.003 6.40936C614.682 13.602 607.679 13.602 603.359 6.40936C599.039 -0.783299 592.034 -0.783299 587.714 6.40936C583.394 13.602 576.39 13.602 572.07 6.40936C567.75 -0.783299 560.746 -0.783299 556.426 6.40936C552.106 13.602 545.101 13.602 540.781 6.40936C536.461 -0.783299 529.457 -0.783299 525.137 6.40936C520.817 13.602 513.812 13.602 509.493 6.40936C505.173 -0.783299 498.168 -0.783299 493.848 6.40936C489.528 13.602 482.524 13.602 478.204 6.40936C473.884 -0.783299 466.879 -0.783299 462.559 6.40936C458.239 13.602 451.235 13.602 446.915 6.40936C442.595 -0.783299 435.591 -0.783299 431.271 6.40936C426.951 13.602 419.946 13.602 415.626 6.40936C411.306 -0.783299 404.302 -0.783299 399.982 6.40936C395.663 13.602 388.658 13.602 384.338 6.40936C380.02 -0.783299 373.014 -0.783299 368.693 6.40936C364.373 13.602 357.369 13.602 353.049 6.40936C348.728 -0.783299 341.724 -0.783299 337.405 6.40936C333.085 13.602 326.08 13.602 321.76 6.40936C317.44 -0.783299 310.436 -0.783299 306.116 6.40936C301.796 13.602 294.791 13.602 290.472 6.40936C286.154 -0.783299 279.148 -0.783299 274.828 6.40936C270.508 13.602 263.503 13.602 259.183 6.40936C254.863 -0.783299 247.859 -0.783299 243.539 6.40936C239.219 13.602 232.214 13.602 227.895 6.40936C223.575 -0.783299 216.57 -0.783299 212.25 6.40936C207.93 13.602 200.926 13.602 196.606 6.40936C192.286 -0.783299 185.282 -0.783299 180.961 6.40936C176.641 13.602 169.637 13.602 165.317 6.40936C160.997 -0.783299 153.993 -0.783299 149.672 6.40936C145.352 13.602 138.348 13.602 134.028 6.40936C129.708 -0.783299 122.704 -0.783299 118.383 6.40936C114.063 13.602 107.059 13.602 102.739 6.40936C98.4195 -0.783299 91.415 -0.783299 87.095 6.40936C82.7749 13.602 75.7705 13.602 71.4505 6.40936C67.1304 -0.783299 60.1264 -0.783299 55.8064 6.40936C51.4864 13.602 44.4819 13.602 40.1619 6.40936C35.8439 -0.783299 28.8374 -0.783299 24.5174 6.40936C20.1994 13.602 13.1934 13.602 8.87292 6.40936C6.7003 2.7905 3.84798 0.99088 1 1.01534V1.00047C3.84798 0.97841 6.7003 2.77467 8.87292 6.3945C13.191 13.5872 20.1974 13.5872 24.5174 6.3945C28.8355 -0.798166 35.8419 -0.798166 40.1619 6.3945C44.48 13.5872 51.4864 13.5872 55.8064 6.3945C60.1264 -0.798166 67.1309 -0.798166 71.4505 6.3945C75.77 13.5872 82.7749 13.5872 87.095 6.3945C91.415 -0.798166 98.4195 -0.798166 102.739 6.3945C107.059 13.5872 114.064 13.5872 118.383 6.3945C122.703 -0.798166 129.708 -0.798166 134.028 6.3945C138.348 13.5872 145.352 13.5872 149.672 6.3945C153.993 -0.798166 160.997 -0.798166 165.317 6.3945C169.637 13.5872 176.642 13.5872 180.961 6.3945C185.281 -0.798166 192.286 -0.798166 196.606 6.3945C200.926 13.5872 207.93 13.5872 212.25 6.3945C216.57 -0.798166 223.574 -0.798166 227.895 6.3945C232.215 13.5872 239.219 13.5872 243.539 6.3945C247.858 -0.798166 254.863 -0.798166 259.183 6.3945C263.503 13.5872 270.508 13.5872 274.828 6.3945C279.148 -0.798166 286.152 -0.798166 290.472 6.3945C294.79 13.5872 301.796 13.5872 306.116 6.3945C310.436 -0.798166 317.44 -0.798166 321.76 6.3945C326.08 13.5872 333.085 13.5872 337.405 6.3945C341.725 -0.798166 348.729 -0.798166 353.049 6.3945C357.369 13.5872 364.373 13.5872 368.693 6.3945C373.013 -0.798166 380.018 -0.798166 384.338 6.3945C388.656 13.5872 395.662 13.5872 399.982 6.3945C404.303 -0.798166 411.306 -0.798166 415.626 6.3945C419.946 13.5872 426.951 13.5872 431.271 6.3945C435.591 -0.798166 442.595 -0.798166 446.915 6.3945C451.235 13.5872 458.239 13.5872 462.559 6.3945C466.879 -0.798166 473.883 -0.798166 478.204 6.3945C482.524 13.5872 489.528 13.5872 493.848 6.3945C498.168 -0.798166 505.173 -0.798166 509.493 6.3945C513.813 13.5872 520.817 13.5872 525.137 6.3945C529.457 -0.798166 536.461 -0.798166 540.781 6.3945C545.101 13.5872 552.106 13.5872 556.426 6.3945C560.746 -0.798166 567.75 -0.798166 572.07 6.3945C576.39 13.5872 583.394 13.5872 587.714 6.3945C592.034 -0.798166 599.039 -0.798166 603.359 6.3945C607.679 13.5872 614.683 13.5872 619.003 6.3945C623.322 -0.798166 630.327 -0.798166 634.647 6.3945C638.965 13.5872 645.972 13.5872 650.292 6.3945C654.61 -0.798166 661.616 -0.798166 665.936 6.3945C670.256 13.5872 677.261 13.5872 681.58 6.3945C685.9 -0.798166 692.905 -0.798166 697.225 6.3945C701.545 13.5872 708.549 13.5872 712.869 6.3945C715.107 2.6663 718.067 0.877245 721 1.01247V1.0254C718.067 0.889222 715.108 2.68117 712.869 6.40936Z" fill="#8B9195" stroke="white" stroke-width="2" stroke-miterlimit="10"/>
</svg>
